<?xml version="1.0" standalone="no"?>
<!DOCTYPE svg PUBLIC "-//W3C//DTD SVG 20010904//EN"
 "http://www.w3.org/TR/2001/REC-SVG-20010904/DTD/svg10.dtd">
<svg version="1.0" xmlns="http://www.w3.org/2000/svg"
 width="711.000000pt" height="711.000000pt" viewBox="0 0 711.000000 711.000000"
 preserveAspectRatio="xMidYMid meet">
<metadata>
Created by potrace 1.14, written by Peter Selinger 2001-2017
</metadata>
<g transform="translate(0.000000,711.000000) scale(0.100000,-0.100000)"
fill="#000000" stroke="none">
<path d="M0 3555 l0 -3555 3555 0 3555 0 0 3555 0 3555 -3555 0 -3555 0 0
-3555z m3745 3121 c82 -22 229 -95 363 -180 23 -14 43 -26 45 -26 2 0 44 -23
93 -52 49 -28 114 -65 144 -83 30 -17 98 -57 150 -87 184 -107 367 -212 525
-303 88 -51 205 -118 260 -150 55 -32 159 -92 230 -133 72 -41 172 -99 223
-129 51 -30 102 -60 115 -66 191 -102 314 -217 386 -360 82 -163 76 -49 76
-1527 0 -1478 6 -1364 -76 -1527 -29 -58 -65 -108 -119 -165 -81 -86 -90 -93
-390 -266 -85 -49 -215 -124 -288 -166 -74 -43 -155 -89 -180 -103 -26 -14
-59 -34 -74 -44 -14 -11 -28 -19 -31 -19 -2 0 -71 -39 -153 -86 -82 -47 -237
-137 -344 -199 -107 -62 -273 -158 -369 -214 -96 -55 -176 -101 -178 -101 -2
0 -22 -12 -45 -26 -136 -86 -282 -158 -368 -181 -89 -24 -271 -24 -360 0 -78
21 -287 122 -345 167 -5 4 -31 19 -56 33 -25 14 -133 76 -240 137 -107 62
-250 145 -319 185 -69 39 -170 98 -225 130 -227 132 -268 155 -272 155 -3 0
-17 8 -31 19 -15 10 -49 30 -75 45 -27 15 -137 78 -245 140 -109 62 -214 123
-234 134 -20 12 -55 32 -77 46 -22 15 -43 26 -46 26 -3 0 -45 25 -94 55 -118
73 -224 186 -280 298 -82 163 -76 50 -76 1527 0 1220 1 1320 17 1380 29 106
91 217 169 303 71 77 132 123 264 197 20 11 95 54 166 95 71 41 187 109 258
150 71 41 147 84 168 96 21 12 112 64 203 117 91 52 221 128 290 167 115 67
178 103 515 298 66 39 140 81 165 95 25 13 50 28 55 32 40 31 238 133 290 150
128 43 298 49 420 16z"/>
<path d="M3424 6421 c-27 -10 -66 -26 -85 -36 -37 -20 -198 -112 -648 -374
-95 -56 -175 -101 -178 -101 -2 0 -29 -16 -59 -35 -30 -19 -56 -35 -58 -35 -2
0 -41 -22 -87 -49 -46 -26 -143 -82 -216 -124 -72 -42 -149 -86 -170 -98 -21
-12 -126 -72 -233 -134 -268 -155 -265 -153 -376 -215 -133 -74 -218 -160
-259 -262 l-30 -73 -3 -1290 -3 -1290 22 -65 c12 -36 33 -83 47 -104 34 -55
109 -127 162 -157 60 -34 342 -197 507 -292 72 -42 147 -85 167 -96 19 -11 53
-31 75 -45 22 -15 42 -26 44 -26 2 0 42 -22 88 -49 46 -26 124 -71 173 -100
49 -28 91 -51 93 -51 3 0 17 -8 31 -19 15 -10 48 -30 74 -44 26 -14 116 -66
200 -115 84 -49 234 -135 333 -192 99 -57 209 -121 244 -142 103 -61 166 -81
263 -86 70 -3 99 0 150 17 68 23 80 30 323 170 261 152 557 322 605 349 25 14
57 33 72 43 14 11 28 19 31 19 2 0 42 22 88 49 46 26 143 82 216 124 72 42
148 86 168 97 20 11 147 85 283 163 136 79 289 167 339 196 134 77 198 142
248 251 l30 65 3 1295 c2 1171 1 1300 -14 1345 -57 177 -85 201 -524 455 -195
113 -364 210 -375 216 -11 6 -80 45 -152 87 -281 163 -393 227 -430 248 -21
12 -78 45 -128 74 -181 106 -604 350 -671 387 -126 69 -269 88 -380 49z m401
-1491 c825 -238 1503 -436 1507 -439 9 -8 -116 -474 -128 -478 -5 -1 -497 62
-1094 141 -597 79 -1086 143 -1087 143 -1 -1 34 -582 78 -1291 44 -709 78
-1290 76 -1292 -5 -5 -595 131 -603 139 -7 7 -466 3058 -461 3063 2 2 158 -37
348 -86 189 -50 350 -90 357 -90 7 0 -40 62 -104 138 -351 415 -417 495 -404
490 8 -2 690 -200 1515 -438z m699 -1390 c319 -6 581 -11 583 -13 4 -4 -324
-1465 -335 -1491 -7 -16 -107 -45 -562 -162 -305 -79 -556 -142 -558 -140 -5
6 26 768 32 773 3 3 197 34 432 69 235 35 429 66 430 67 4 3 73 411 70 414 -1
1 -208 -14 -460 -33 -252 -19 -461 -33 -463 -30 -5 4 11 337 23 484 l6 72 111
0 c62 0 373 -5 691 -10z"/>
</g>
</svg>
